<svg width="360" height="310" xmlns="http://www.w3.org/2000/svg" version="1.0" preserveAspectRatio="xMidYMid meet" zoomAndPan="magnify">
 <defs>
  <g id="svg_1">
   <g id="id1"/>
   <g id="id2"/>
  </g>
  <clipPath id="id3">
   <path id="svg_2" clip-rule="nonzero" d="m147.75391,101.96094l81,0l0,93.6875l-81,0l0,-93.6875zm0,0"/>
  </clipPath>
 </defs>
 <g>
  <title>Layer 1</title>
  <g id="svg_3" clip-path="url(#id3)">
   <path id="svg_4" fill-rule="nonzero" d="m175.30469,129.00781c0.71094,-0.36328 1.42187,-0.72656 2.1289,-1.08984c0.63672,-0.32422 0.82422,-1.21875 0.47657,-1.8125c-0.37891,-0.64844 -1.17188,-0.80469 -1.8125,-0.47656c-0.70703,0.36328 -1.41797,0.72656 -2.12891,1.08984c-0.63672,0.32422 -0.82031,1.22266 -0.47656,1.8125c0.3789,0.64844 1.17187,0.80469 1.8125,0.47656zm18.03906,6.27735c-0.54687,0.58203 -1.09375,1.16406 -1.63672,1.75c-0.47265,0.5039 -0.53906,1.3789 0,1.875c0.51563,0.47265 1.36328,0.53906 1.8711,0c0.54687,-0.58594 1.09375,-1.16407 1.63671,-1.75c0.47266,-0.50782 0.53907,-1.38282 0,-1.875c-0.51562,-0.47266 -1.36328,-0.53907 -1.87109,0zm10.72266,13.91015c-0.46094,-0.65234 -0.92188,-1.30859 -1.38282,-1.95703c-0.39843,-0.5664 -1.17187,-0.88672 -1.80859,-0.47656c-0.55859,0.36328 -0.90234,1.21094 -0.47656,1.81641c0.46094,0.65234 0.92187,1.30468 1.3789,1.95312c0.40235,0.56641 1.17579,0.89063 1.8125,0.48047c0.5586,-0.36328 0.90235,-1.21094 0.47657,-1.81641zm-7.97657,28.6875c0.79688,-0.0039 1.59766,-0.01172 2.39454,-0.01953c0.71484,-0.00781 1.32031,-0.60547 1.32031,-1.32812c0,-0.71094 -0.60547,-1.32813 -1.32031,-1.32422c-0.79688,0.00781 -1.59766,0.01562 -2.39454,0.02344c-0.71484,0.00781 -1.32421,0.60156 -1.32421,1.32421c0,0.71485 0.60937,1.33204 1.32421,1.32422zm5.92188,-16.44531l0.09766,-2.39453c0.03125,-0.71484 -0.62891,-1.32422 -1.32032,-1.32422c-0.74609,0 -1.29687,0.60547 -1.32812,1.32422l-0.09766,2.39453c-0.03125,0.71875 0.62891,1.32813 1.32031,1.32813c0.7461,0 1.29297,-0.60547 1.32813,-1.32813zm-25.16797,-11.18359c-0.41797,-0.67969 -0.83984,-1.35938 -1.26172,-2.03907c-0.36328,-0.58984 -1.19922,-0.87109 -1.80859,-0.47265c-0.58985,0.3789 -0.86719,1.18359 -0.47656,1.8125c0.42187,0.67969 0.83984,1.35937 1.26171,2.03906c0.36329,0.58984 1.19922,0.87109 1.8125,0.47656c0.58594,-0.38672 0.86329,-1.1875 0.47266,-1.8164zm-11.46094,16.5664c0.65625,-0.44922 1.31641,-0.90234 1.97657,-1.35156c0.57031,-0.39062 0.8789,-1.18359 0.47265,-1.8125c-0.36328,-0.57031 -1.19922,-0.89453 -1.80859,-0.47656c-0.66016,0.44922 -1.32031,0.89844 -1.97656,1.35156c-0.57032,0.39063 -0.88282,1.18359 -0.47657,1.8125c0.36719,0.57031 1.19922,0.89453 1.8125,0.47656zm2.54297,-19.91797c0.28906,0.23829 0.46485,0.57032 0.5,0.94141c0.03906,0.375 -0.07031,0.73438 -0.30859,1.02734c-0.23438,0.28907 -0.57031,0.46875 -0.94141,0.50391c-0.37109,0.03516 -0.73437,-0.07812 -1.02344,-0.3125c-0.28906,-0.23828 -0.46484,-0.57031 -0.5039,-0.94141c-0.03516,-0.375 0.07422,-0.73437 0.3125,-1.02734c0.23437,-0.28906 0.57031,-0.46875 0.9414,-0.50391c0.04688,-0.0039 0.09375,-0.00781 0.13672,-0.00781c0.32422,0 0.63282,0.10938 0.88672,0.32031zm-0.49219,5.10547c1.07422,-0.10547 2.04297,-0.62109 2.72657,-1.45703c0.68359,-0.83594 1.0039,-1.88672 0.89843,-2.96484c-0.10546,-1.07422 -0.62109,-2.04688 -1.45703,-2.73047c-0.83203,-0.68359 -1.88281,-1.00781 -2.95703,-0.89844c-1.07422,0.10547 -2.04297,0.6211 -2.72656,1.45703c-0.68359,0.83594 -1.00391,1.88672 -0.89844,2.96485c0.10547,1.07422 0.6211,2.04687 1.45703,2.73047c0.73047,0.59765 1.625,0.92187 2.55469,0.92187c0.13281,0 0.26953,-0.00781 0.40234,-0.02344zm58.66407,1.73828c-0.32422,-9.45703 -4.125,-18.04687 -10.15625,-24.52734l-1.17578,1.17969c0.49609,0.80078 0.84765,1.7539 1.15234,2.83984c0.15234,0.54297 0.29687,1.11719 0.4375,1.67188c0.55859,2.21093 1.19141,4.72656 2.41406,5.66015c1.45313,1.11328 4.85938,3.72266 4.28906,9.44141c-0.16406,1.64844 -0.4414,2.80469 -0.6914,3.73437l3.73047,0zm-10.16016,27.17579c6.03516,-6.47266 9.83594,-15.06641 10.16016,-24.52735l-4.25391,0c0.01172,0.39453 0.09375,0.82422 0.25,1.36328c0.13281,0.44922 0.28906,0.89063 0.44922,1.35157c0.92969,2.66015 1.98437,5.67578 -1.52734,9.64843c-1.03516,1.17188 -1.89063,2 -2.57813,2.67188c-1.65625,1.60547 -2.15625,2.08594 -2.35937,4.47265c-0.15235,1.75 -0.46875,3.10547 -1.01172,4.14454l0.87109,0.875zm-26.35156,12.05078c9.4414,-0.32422 18.01562,-4.13282 24.48437,-10.17578l-0.80078,-0.79688c-0.77344,0.47266 -1.72265,0.77344 -2.89453,0.94922c-0.31641,0.04687 -0.64062,0.08984 -0.96484,0.13672c-2.53907,0.35156 -5.16407,0.71484 -6.08203,2.39453c-1.44532,2.66406 -4.51172,4.97656 -7.61719,4.97656c-0.51563,0 -1.03906,-0.0625 -1.55469,-0.20312c-0.86719,-0.23438 -1.73047,-0.5586 -2.5625,-0.875c-0.69141,-0.25782 -1.37891,-0.51563 -2.00781,-0.69922l0,4.29297zm-27.12891,-10.17578c6.46485,6.04296 15.03906,9.85156 24.48438,10.17578l0,-4.3086c-0.01563,0.01172 -0.03516,0.01953 -0.05078,0.02735c-2.5625,1.75781 -8.09375,2.33984 -11.27344,-0.70703l-0.25781,-0.2461c-2.4375,-2.33984 -4.73829,-4.54297 -7.52735,-4.54297c-1.65625,0 -3.14062,-0.5664 -4.33984,-1.4375l-1.03516,1.03907zm-12.03125,-26.40235c0.32422,9.46094 4.125,18.05469 10.16016,24.52735l1.05859,-1.0625c-0.67187,-0.97657 -1.09375,-2.07032 -1.19531,-3.14063c-0.30859,-3.21484 -1.28516,-5.74219 -2.625,-6.75c-0.30078,-0.23047 -0.62109,-0.44922 -0.92969,-0.66406c-1.84375,-1.28125 -4.14453,-2.8711 -3.53515,-6.89844c0.13671,-0.90234 0.30859,-1.75391 0.47656,-2.57031c0.24219,-1.19531 0.46875,-2.3125 0.55078,-3.44141l-3.96094,0zm10.14453,-27.1875c-6.26562,6.72266 -9.83203,15.34766 -10.14453,24.53906l3.83985,0c-0.08594,-0.48046 -0.21485,-0.97656 -0.39063,-1.48828c-1.32812,-3.875 -2.01562,-7.13281 2.08594,-10.82031c3.21094,-2.88281 3.77344,-3.91797 4.15625,-6.22656c0.37109,-2.21875 0.89062,-3.79297 1.61328,-4.84375l-1.16016,-1.16016zm17.52344,17.55078l-14.4375,-14.46093c-0.30078,0.60937 -0.64453,1.63281 -0.92969,3.35156c-0.51562,3.09375 -1.49609,4.61719 -5,7.76562c-2.67187,2.39453 -2.67968,4.09766 -1.35156,7.98438c0.28125,0.8164 0.45703,1.59765 0.5625,2.34765l28.13281,0l-6.97656,-6.98828zm11.49219,-22.42578l0,27.54688l21.35937,-21.40235c-0.59765,-0.24609 -1.35937,-0.40625 -2.35937,-0.49218c-3.79297,-0.31641 -6.07031,-2.44141 -7.89844,-4.15235c-0.41797,-0.38672 -0.8125,-0.7539 -1.20312,-1.08203c-2.13282,-1.80078 -3.80079,-3.21094 -7.46875,-1.32812c-0.8125,0.41796 -1.62891,0.72265 -2.42969,0.91015zm24.48437,3.01563c-6.46875,-6.04297 -15.04297,-9.85157 -24.48437,-10.17578l0,4.41015c0.39453,-0.1289 0.80078,-0.30078 1.22265,-0.51562c5.23047,-2.6875 8.19532,-0.1875 10.35938,1.64062c0.46484,0.38672 0.89844,0.79688 1.32422,1.19141c1.6875,1.57422 3.43359,3.20703 6.30859,3.44922c1.78906,0.14843 3.10938,0.54297 4.10938,1.16015l1.16015,-1.16015zm-24.48437,58.60547c0.99219,0.22265 1.99219,0.59375 2.9375,0.95312c0.77734,0.28906 1.57422,0.59375 2.32031,0.78906c2.22656,0.60547 4.98438,-1.3125 6.16797,-3.48047c1.55078,-2.85156 5,-3.33203 8.03516,-3.75c0.3164,-0.04296 0.63281,-0.08984 0.9414,-0.13281c0.50391,-0.07812 0.9375,-0.16406 1.32031,-0.30078l-21.72265,-21.76172l0,13.50781c0.125,0.08204 0.24609,0.17188 0.36719,0.26954c1.71875,1.41406 1.96875,3.97265 0.55859,5.69531c-0.27344,0.32812 -0.58594,0.60156 -0.92578,0.82031l0,7.39063zm-24.19531,-6.09766c0.6875,0.41797 1.5039,0.69141 2.4414,0.69141c3.85156,0 6.64844,2.67968 9.35547,5.28125l0.25781,0.24218c2.07813,1.9961 6.19141,1.64844 7.95313,0.4375c0.49219,-0.33203 1.00781,-0.54297 1.54297,-0.65625l0,-6.66406c-0.75391,-0.08203 -1.49219,-0.37109 -2.11719,-0.89062c-1.72266,-1.41407 -1.97266,-3.96875 -0.55469,-5.69141c0.67188,-0.82031 1.61719,-1.33594 2.67188,-1.44922l0,-12.88672l-21.55078,21.58594zm23.07812,-3.79297c0.48438,-0.59766 0.39844,-1.48047 -0.19531,-1.97266c-0.25,-0.20312 -0.5625,-0.3164 -0.88281,-0.3164c-0.04688,0 -0.09375,0.0039 -0.13672,0.01172c-0.3711,0.03125 -0.70703,0.21093 -0.94532,0.5c-0.48828,0.59765 -0.40234,1.47656 0.19141,1.96875c0.59766,0.48828 1.48047,0.40234 1.96875,-0.19141zm-24.90234,1.875l21.5039,-21.53906l-28.03906,0c-0.08203,1.3789 -0.34375,2.68359 -0.60547,3.96484c-0.16015,0.78906 -0.32422,1.60156 -0.44922,2.44141c-0.36328,2.39062 0.6836,3.12109 2.42188,4.32031c0.33203,0.23438 0.67578,0.47266 1.01953,0.73047c2.66406,2.01562 3.4375,6.26172 3.66016,8.61328c0.04687,0.45703 0.21484,0.96484 0.48828,1.46875zm55.63672,-21.53906l-27.75,0l21.59765,21.63281c0.17969,-0.60156 0.3086,-1.36328 0.39453,-2.35156c0.28907,-3.375 1.36328,-4.41797 3.14844,-6.15235c0.66016,-0.63671 1.47656,-1.42968 2.44531,-2.52343c2.48047,-2.8125 1.86719,-4.57422 1.00782,-7.01953c-0.16407,-0.47266 -0.33594,-0.96094 -0.48829,-1.47266c-0.24218,-0.8125 -0.34375,-1.5 -0.35546,-2.11328zm-6.38282,-24.05469l-21.36718,21.40625l28.16796,0c0.01954,-0.06641 0.03907,-0.12891 0.05469,-0.19531c0.26953,-0.96875 0.57813,-2.0625 0.75,-3.8086c0.39453,-3.91406 -1.47656,-5.70312 -3.26172,-7.07031c-1.95703,-1.49609 -2.67578,-4.35156 -3.37109,-7.11328c-0.14063,-0.55078 -0.27734,-1.09375 -0.42188,-1.60937c-0.17187,-0.61719 -0.34375,-1.14844 -0.55078,-1.60938zm15.94532,22.73047c0,22.375 -18.16797,40.57422 -40.50391,40.57422c-22.33594,0 -40.50391,-18.19922 -40.50391,-40.57422c0,-10.83594 4.21094,-21.02734 11.86328,-28.69141l0.9336,-0.93359l26.38672,26.42969l0,-37.37891l1.32031,0c22.33594,0 40.50391,18.20313 40.50391,40.57031l0,0.00391zm-18.4961,7.88672c0.36719,0.08203 0.67578,0.30078 0.8711,0.61719c0.19921,0.3164 0.26562,0.6914 0.18359,1.05468c-0.08203,0.36328 -0.30469,0.67578 -0.61719,0.875c-0.3164,0.19922 -0.6914,0.26563 -1.05469,0.1836c-0.35937,-0.08594 -0.67187,-0.30469 -0.87109,-0.6211c-0.19922,-0.3164 -0.26172,-0.6914 -0.17969,-1.05468c0.08203,-0.36719 0.30078,-0.67579 0.61719,-0.875c0.22656,-0.14063 0.48047,-0.21485 0.74219,-0.21485c0.10547,0 0.20703,0.01172 0.30859,0.03516zm1.84375,4.78906c0.91406,-0.57812 1.55078,-1.47266 1.78906,-2.52734c0.23829,-1.05469 0.05079,-2.14063 -0.52343,-3.05469c-0.57422,-0.91406 -1.46875,-1.55078 -2.51953,-1.78906c-1.05469,-0.24219 -2.13672,-0.05078 -3.05079,0.52343c-0.91406,0.57422 -1.54687,1.46875 -1.78515,2.52735c-0.23828,1.05469 -0.05469,2.13672 0.52344,3.05078c0.57421,0.91406 1.46875,1.55078 2.51953,1.79297c0.30078,0.0625 0.60156,0.10156 0.90234,0.10156c0.75391,0 1.49219,-0.21484 2.14453,-0.625zm-2.83984,-23.85156c0.36328,0.08203 0.67187,0.30469 0.87109,0.61719c0.19922,0.3164 0.26172,0.6875 0.17969,1.05468c-0.17188,0.75391 -0.92188,1.22657 -1.67188,1.05469c-0.36328,-0.08203 -0.67187,-0.30078 -0.87109,-0.62109c-0.19922,-0.3125 -0.26172,-0.6875 -0.17969,-1.05078c0.08203,-0.36329 0.30078,-0.67579 0.61719,-0.875c0.22656,-0.14063 0.48047,-0.21485 0.74219,-0.21485c0.10156,0 0.20703,0.01172 0.3125,0.03516zm3.625,2.25781c0.24219,-1.05469 0.05859,-2.13672 -0.51563,-3.05078c-0.57812,-0.91406 -1.47265,-1.55078 -2.52734,-1.78906c-2.17188,-0.4961 -4.33984,0.87109 -4.83203,3.05078c-0.23828,1.05078 -0.05469,2.13672 0.51953,3.04687c0.57812,0.91797 1.47656,1.55469 2.52734,1.79297c0.30078,0.07031 0.59766,0.10156 0.89453,0.10156c1.84375,0 3.51172,-1.27734 3.9336,-3.15234zm-13.07422,-16.83984c0,0.76953 -0.625,1.39843 -1.39453,1.39843c-0.76953,0 -1.39453,-0.6289 -1.39453,-1.39843c0,-0.77344 0.625,-1.39844 1.39453,-1.39844c0.76953,0 1.39453,0.625 1.39453,1.39844zm2.64453,0c0,-2.23047 -1.8125,-4.04688 -4.03906,-4.04688c-2.22656,0 -4.03906,1.81641 -4.03906,4.04688c0,2.23047 1.8125,4.04297 4.03906,4.04297c2.22656,0 4.03906,-1.8125 4.03906,-4.04297zm-24.78516,-10.76953c0,0.76953 -0.625,1.39843 -1.39453,1.39843c-0.76953,0 -1.39843,-0.6289 -1.39843,-1.39843c0,-0.77344 0.6289,-1.39844 1.39843,-1.39844c0.76953,0 1.39453,0.625 1.39453,1.39844zm2.64454,0c0,-2.23047 -1.8125,-4.04688 -4.03907,-4.04688c-2.23047,0 -4.04297,1.81641 -4.04297,4.04688c0,2.23046 1.8125,4.04687 4.04297,4.04687c2.22657,0 4.03907,-1.81641 4.03907,-4.04687zm-3.66016,-8.08985c-0.33203,-0.16797 -0.64453,-0.33203 -0.91797,-0.45312c-1.14844,-0.51172 -4.53906,1.39843 -5.94531,3.34765c-1.72266,2.39063 -4.28516,3.73047 -7.60938,3.98828c-0.96875,0.07032 -1.74609,0.33594 -2.32812,0.62891l21.33203,21.375l0,-27.35156c-1.87109,-0.16406 -3.375,-0.9375 -4.53125,-1.53516zm-19.96484,4.34375l1.23046,1.23438c0.89454,-0.57422 2.25391,-1.19922 4.0586,-1.33594c2.55078,-0.19922 4.40625,-1.14453 5.66797,-2.89844c1.53515,-2.1289 6.16406,-5.55078 9.16406,-4.21484c0.34375,0.15234 0.69141,0.32812 1.05469,0.51953c0.98047,0.50391 2.0625,1.05859 3.32031,1.21875l0,-4.69141c-9.17578,0.31641 -17.78516,3.89063 -24.49609,10.16797zm27.14062,-12.83594l0,43.76954l-30.89453,-30.94922l0.93359,-0.9375c7.64844,-7.66407 17.82032,-11.88282 28.64063,-11.88282l1.32031,0zm32.87891,48.25c1.70312,0 1.70703,-2.65234 0,-2.65234c-1.70313,0 -1.70703,2.65234 0,2.65234zm-48.53907,-28.04296c1.70313,0 1.70704,-2.65235 0,-2.65235c-1.70312,0 -1.70703,2.65235 0,2.65235zm48.53907,28.04296c1.70312,0 1.70703,-2.65234 0,-2.65234c-1.70313,0 -1.70703,2.65234 0,2.65234zm-0.21875,11.65625c1.69922,0 1.70312,-2.65234 0,-2.65234c-1.70703,0 -1.71094,2.65234 0,2.65234zm-20.41016,11.35547c1.69922,0 1.70313,-2.65234 0,-2.65234c-1.70312,0 -1.70703,2.65234 0,2.65234zm-15.76172,-2.02343c1.70313,0 1.70313,-2.64844 0,-2.64844c-1.70312,0 -1.70703,2.64844 0,2.64844zm-4.05078,9.19531c1.70313,0 1.70703,-2.65235 0,-2.65235c-1.70312,0 -1.70312,2.65235 0,2.65235zm-1.45703,-17.63281c-1.70703,0 -1.70313,-2.65235 0,-2.65235c1.70703,0 1.70312,2.65235 0,2.65235" fill="rgb(98.039246%, 96.859741%, 78.039551%)"/>
  </g>
  <g id="svg_5" fill="rgb(98.039246%, 96.859741%, 78.039551%)">
   <g id="svg_6">
    <g id="svg_7">
     <path id="svg_8" d="m109.87806,214.72879l0,6.54688l4.5,0l0,1.65625l-6.57813,0l0,-18.125l6.5,0l0,1.65625l-4.42187,0l0,6.60937l4.03125,0l0,1.65625l-4.03125,0zm0,0"/>
    </g>
   </g>
  </g>
  <g id="svg_9" fill="rgb(98.039246%, 96.859741%, 78.039551%)">
   <g id="svg_10">
    <g id="svg_11">
     <path id="svg_12" d="m125.55464,222.93192l0,-18.125l2.07813,0l0,16.46875l4.01562,0l0,1.65625l-6.09375,0zm0,0"/>
    </g>
   </g>
  </g>
  <g id="svg_13" fill="rgb(98.039246%, 96.859741%, 78.039551%)">
   <g id="svg_14">
    <g id="svg_15"/>
   </g>
  </g>
  <g id="svg_16" fill="rgb(98.039246%, 96.859741%, 78.039551%)">
   <g id="svg_17">
    <g id="svg_18">
     <path id="svg_19" d="m153.02879,206.46317l0,-1.65625l7.0625,0l0,1.65625l-2.51562,0l0,16.46875l-2.04688,0l0,-16.46875l-2.5,0zm0,0"/>
    </g>
   </g>
  </g>
  <g id="svg_20" fill="rgb(98.039246%, 96.859741%, 78.039551%)">
   <g id="svg_21">
    <g id="svg_22">
     <path id="svg_23" d="m176.60587,222.93192l-0.8125,-4.71875l-3.64062,0l-0.78125,4.71875l-2.0625,0l3.3125,-18.125l2.73437,0l3.3125,18.125l-2.0625,0zm-2.625,-15.51563l-1.54687,9.14063l3.07812,0l-1.53125,-9.14063zm0,0"/>
    </g>
   </g>
  </g>
  <g id="svg_24" fill="rgb(98.039246%, 96.859741%, 78.039551%)">
   <g id="svg_25">
    <g id="svg_26">
     <path id="svg_27" d="m189.17255,222.93192l0,-18.125l2.07813,0l0,16.46875l4.01562,0l0,1.65625l-6.09375,0zm0,0"/>
    </g>
   </g>
  </g>
  <g id="svg_28" fill="rgb(98.039246%, 96.859741%, 78.039551%)">
   <g id="svg_29">
    <g id="svg_30">
     <path id="svg_31" d="m207.81502,214.72879l0,6.54688l4.5,0l0,1.65625l-6.57813,0l0,-18.125l6.5,0l0,1.65625l-4.42187,0l0,6.60937l4.03125,0l0,1.65625l-4.03125,0zm0,0"/>
    </g>
   </g>
  </g>
  <g id="svg_32" fill="rgb(98.039246%, 96.859741%, 78.039551%)">
   <g id="svg_33">
    <g id="svg_34">
     <path id="svg_35" d="m225.52286,222.93192l-2.03125,0l0,-18.125l2.15625,0l4.21875,13.25l0,-13.25l2.01563,0l0,18.125l-2.14063,0l-4.21875,-13.23438l0,13.23438zm0,0"/>
    </g>
   </g>
  </g>
  <g id="svg_36" fill="rgb(98.039246%, 96.859741%, 78.039551%)">
   <g id="svg_37">
    <g id="svg_38">
     <path id="svg_39" d="m242.31995,206.46317l0,-1.65625l7.0625,0l0,1.65625l-2.51562,0l0,16.46875l-2.04688,0l0,-16.46875l-2.5,0zm0,0"/>
    </g>
   </g>
  </g>
  <g id="svg_40" fill="rgb(98.039246%, 96.859741%, 78.039551%)">
   <g id="svg_41">
    <g id="svg_42">
     <path id="svg_43" d="m267.55325,210.21317l0,7.3125c0,2.1875 -0.35156,3.70312 -1.04687,4.54687c-0.69922,0.83594 -1.70313,1.25001 -3.01563,1.25001c-1.30469,0 -2.30469,-0.41407 -3,-1.25001c-0.69922,-0.84375 -1.04687,-2.35937 -1.04687,-4.54687l0,-7.3125c0,-2.1875 0.34765,-3.69531 1.04687,-4.53125c0.69531,-0.84375 1.69531,-1.26563 3,-1.26563c1.3125,0 2.31641,0.42188 3.01563,1.26563c0.69531,0.83594 1.04687,2.34375 1.04687,4.53125zm-2.04687,7.70312l0,-8.07812c0,-2.48828 -0.66797,-3.73438 -2,-3.73438c-0.63672,0 -1.13282,0.27344 -1.48438,0.8125c-0.35547,0.53125 -0.53125,1.50782 -0.53125,2.92188l0,8.07812c0,1.40625 0.17578,2.38282 0.53125,2.92188c0.35156,0.53125 0.84766,0.79687 1.48438,0.79687c1.33203,0 2,-1.23828 2,-3.71875zm0,0"/>
    </g>
   </g>
  </g>
  <g id="svg_44" fill="rgb(98.039246%, 96.859741%, 78.039551%)">
   <g id="svg_45">
    <g id="svg_46">
     <path id="svg_47" d="m150.65202,245.62982l0,-18.125l3.21875,0c1.28906,0 2.28516,0.42187 2.98438,1.26562c0.69531,0.83594 1.04687,2.34375 1.04687,4.53125l0,0.14063c0,2.1875 -0.35156,3.69922 -1.04687,4.53125c-0.69922,0.82422 -1.69532,1.23437 -2.98438,1.23437l-1.14062,0l0,6.42188l-2.07813,0zm5.20313,-11.85938l0,-0.79687c0,-2.53906 -0.66407,-3.8125 -1.98438,-3.8125l-1.14062,0l0,8.42187l1.14062,0c1.32031,0 1.98438,-1.26953 1.98438,-3.8125zm0,0"/>
    </g>
   </g>
  </g>
  <g id="svg_48" fill="rgb(98.039246%, 96.859741%, 78.039551%)">
   <g id="svg_49">
    <g id="svg_50">
     <path id="svg_51" d="m168.51025,245.62982l0,-18.125l2.07813,0l0,18.125l-2.07813,0zm0,0"/>
    </g>
   </g>
  </g>
  <g id="svg_52" fill="rgb(98.039246%, 96.859741%, 78.039551%)">
   <g id="svg_53">
    <g id="svg_54">
     <path id="svg_55" d="m181.27444,245.62982l0,-0.98438l5.75,-15.48437l-5.25,0l0,-1.65625l7.39063,0l0,0.98437l-5.73438,15.48438l5.73438,0l0,1.65625l-7.89063,0zm0,0"/>
    </g>
   </g>
  </g>
  <g id="svg_56" fill="rgb(98.039246%, 96.859741%, 78.039551%)">
   <g id="svg_57">
    <g id="svg_58">
     <path id="svg_59" d="m198.82214,245.62982l0,-0.98438l5.75,-15.48437l-5.25,0l0,-1.65625l7.39063,0l0,0.98437l-5.73438,15.48438l5.73438,0l0,1.65625l-7.89063,0zm0,0"/>
    </g>
   </g>
  </g>
  <g id="svg_60" fill="rgb(98.039246%, 96.859741%, 78.039551%)">
   <g id="svg_61">
    <g id="svg_62">
     <path id="svg_63" d="m223.49483,245.62982l-0.8125,-4.71875l-3.64062,0l-0.78125,4.71875l-2.0625,0l3.3125,-18.125l2.73437,0l3.3125,18.125l-2.0625,0zm-2.625,-15.51563l-1.54687,9.14063l3.07812,0l-1.53125,-9.14063zm0,0"/>
    </g>
   </g>
  </g>
  <g id="svg_64" fill="rgb(98.039246%, 96.859741%, 78.039551%)">
   <g id="svg_65">
    <g id="svg_66">
     <path id="svg_67" d="m162.76088,294.51822l0,-8.51563l1.51562,0c0.60156,0 1.06641,0.19922 1.39063,0.59375c0.33203,0.38672 0.5,1.09375 0.5,2.125l0,0.0625c0,1.03125 -0.16797,1.7461 -0.5,2.14063c-0.32422,0.38672 -0.78907,0.57812 -1.39063,0.57812l-0.54687,0l0,3.01563l-0.96875,0zm2.45312,-5.57813l0,-0.375c0,-1.1875 -0.3125,-1.78125 -0.9375,-1.78125l-0.54687,0l0,3.95313l0.54687,0c0.625,0 0.9375,-0.59766 0.9375,-1.79688zm0,0"/>
    </g>
   </g>
  </g>
  <g id="svg_68" fill="rgb(98.039246%, 96.859741%, 78.039551%)">
   <g id="svg_69">
    <g id="svg_70">
     <path id="svg_71" d="m170.49178,294.51822l0,-6.57813l0.9375,0l0,6.57813l-0.9375,0zm-0.03125,-7.85938l0,-1.14062l1,0l0,1.14062l-1,0zm0,0"/>
    </g>
   </g>
  </g>
  <g id="svg_72" fill="rgb(98.039246%, 96.859741%, 78.039551%)">
   <g id="svg_73">
    <g id="svg_74">
     <path id="svg_75" d="m175.86951,294.51822l0,-0.5l2.15625,-5.3125l-2.01563,0l0,-0.76563l3.04688,0l0,0.5l-2.20313,5.32813l2.20313,0l0,0.75l-3.1875,0zm0,0"/>
    </g>
   </g>
  </g>
  <g id="svg_76" fill="rgb(98.039246%, 96.859741%, 78.039551%)">
   <g id="svg_77">
    <g id="svg_78">
     <path id="svg_79" d="m183.07717,294.51822l0,-0.5l2.15625,-5.3125l-2.01563,0l0,-0.76563l3.04688,0l0,0.5l-2.20313,5.32813l2.20313,0l0,0.75l-3.1875,0zm0,0"/>
    </g>
   </g>
  </g>
  <g id="svg_80" fill="rgb(98.039246%, 96.859741%, 78.039551%)">
   <g id="svg_81">
    <g id="svg_82">
     <path id="svg_83" d="m193.92545,292.81509c-0.0625,0.71094 -0.23437,1.20313 -0.51562,1.48438c-0.27344,0.26953 -0.66797,0.40625 -1.1875,0.40625c-0.52344,0 -0.9375,-0.18359 -1.25,-0.54688c-0.30469,-0.375 -0.45313,-1.04687 -0.45313,-2.01562l0,-1.82813c0,-0.95703 0.14844,-1.61718 0.45313,-1.98437c0.3125,-0.375 0.74218,-0.5625 1.29687,-0.5625c0.55078,0 0.96875,0.18359 1.25,0.54687c0.28125,0.36719 0.42188,1.03125 0.42188,2l0,1.3125l-2.5,0l0,0.6875c0,1.08594 0.25781,1.625 0.78125,1.625c0.25,0 0.4414,-0.08593 0.57812,-0.26562c0.14453,-0.17578 0.24219,-0.50781 0.29688,-1l0.82812,0.14062zm-2.48437,-2.67187l0,0.70312l1.5625,0l0,-0.70312c0,-1.08203 -0.25782,-1.625 -0.76563,-1.625c-0.53125,0 -0.79687,0.54297 -0.79687,1.625zm0,0"/>
    </g>
   </g>
  </g>
  <g id="svg_84" fill="rgb(98.039246%, 96.859741%, 78.039551%)">
   <g id="svg_85">
    <g id="svg_86">
     <path id="svg_87" d="m200.64792,287.76822l0.25,0l-0.07813,1.04687c-0.11719,-0.0625 -0.22656,-0.09375 -0.32812,-0.09375c-0.61719,0 -0.92969,0.64063 -0.9375,1.92188l0,3.875l-0.9375,0l0,-6.57813l0.57812,0l0.26563,1.125c0.15625,-0.86328 0.55078,-1.29687 1.1875,-1.29687zm0,0"/>
    </g>
   </g>
  </g>
  <g id="svg_88" fill="rgb(98.039246%, 96.859741%, 78.039551%)">
   <g id="svg_89">
    <g id="svg_90">
     <path id="svg_91" d="m205.06991,294.51822l0,-6.57813l0.9375,0l0,6.57813l-0.9375,0zm-0.4375,-7.76563l1.57812,-1.4375l0.4375,0.8125l-1.75,1.0625l-0.26562,-0.4375zm0,0"/>
    </g>
   </g>
  </g>
  <g id="svg_92" fill="rgb(98.039246%, 96.859741%, 78.039551%)">
   <g id="svg_93">
    <g id="svg_94">
     <path id="svg_95" d="m210.63514,292.48697c0,-0.76953 0.11328,-1.29688 0.34375,-1.57813c0.22656,-0.28125 0.55078,-0.42187 0.96875,-0.42187c0.42578,0 0.75781,0.16406 1,0.48437l0,-1.26562c0,-0.78125 -0.2461,-1.17188 -0.73438,-1.17188c-0.40625,0 -0.79687,0.24219 -1.17187,0.71875l-0.32813,-0.6875c0.1875,-0.22656 0.42188,-0.41406 0.70313,-0.5625c0.28906,-0.15625 0.58593,-0.23437 0.89062,-0.23437c1.05078,0 1.57813,0.71484 1.57813,2.14062l0,4.60938l-0.57813,0l-0.1875,-0.79688c-0.09375,0.33594 -0.24609,0.58594 -0.45312,0.75c-0.19922,0.15626 -0.42969,0.23438 -0.6875,0.23438c-0.4375,0 -0.77344,-0.14062 -1,-0.42188c-0.23047,-0.28125 -0.34375,-0.80468 -0.34375,-1.57812l0,-0.21875zm1.53125,1.45312c0.23828,0 0.42578,-0.08203 0.5625,-0.25c0.13281,-0.17578 0.20703,-0.48828 0.21875,-0.9375l0,-0.32812c-0.01172,-0.47656 -0.08594,-0.8125 -0.21875,-1c-0.13672,-0.1875 -0.32422,-0.28125 -0.5625,-0.28125c-0.40625,0 -0.60938,0.38672 -0.60938,1.15625l0,0.48437c0,0.77344 0.20313,1.15625 0.60938,1.15625zm0,0"/>
    </g>
   </g>
  </g>
 </g>
</svg>